<svg xmlns="http://www.w3.org/2000/svg" xmlns:xlink="http://www.w3.org/1999/xlink" version="1.1" x="0px" y="0px" viewBox="0 0 64 80" style="enable-background:new 0 0 64 64;" xml:space="preserve"><g><path d="M60,57V38c0-1.654-1.346-3-3-3h-5v-6h2v-6H38v6h2v6h-6V25h2v-6h-1.595c0.867-0.926,1.442-2.108,1.567-3.414   c0.161-1.689-0.396-3.374-1.531-4.622c-0.362-0.397-0.776-0.737-1.225-1.02C33.723,9.049,34,8.048,34,7c0-3.309-2.691-6-6-6   c-2.314,0-4.323,1.319-5.323,3.243C22.135,4.085,21.574,4,21,4c-2.994,0-5.476,2.207-5.922,5.078C12.207,9.524,10,12.006,10,15   c0,1.445,0.52,2.887,1.591,4H10v6h2v10H7c-1.654,0-3,1.346-3,3v19H1v6h62v-6H60z M58,38v19h-2V39H22v-2h35   C57.552,37,58,37.449,58,38z M42,41h8v8c0,2.206-1.794,4-4,4s-4-1.794-4-4V41z M14,41h2.184c0.414,1.161,1.514,2,2.816,2   s2.402-0.839,2.816-2H32v9c0,1.654-1.346,3-3,3H17c-1.654,0-3-1.346-3-3V41z M12,23v-2h4v2H12z M40,25h12v2H40V25z M42,29h8v6h-8   V29z M34,23h-4v2h2v10H22V25h6v-2h-6v-2h7h0.785H34V23z M15.111,11.107c0.167,0.899,0.529,1.749,1.089,2.494l1.6-1.201   C17.276,11.704,17,10.874,17,10c0-2.206,1.794-4,4-4c0.366,0,0.72,0.066,1.065,0.162C22.027,6.437,22,6.715,22,7   c0,0.403,0.04,0.807,0.119,1.198l1.961-0.396C24.026,7.54,24,7.271,24,7c0-2.206,1.794-4,4-4s4,1.794,4,4   c0,0.783-0.233,1.525-0.656,2.174c-0.829-0.193-1.696-0.225-2.542-0.053l0.396,1.96c1.362-0.278,2.824,0.199,3.763,1.23   c0.767,0.844,1.129,1.94,1.021,3.086C33.788,17.417,31.945,19,29.785,19H29h-9v21c0,0.551-0.448,1-1,1s-1-0.449-1-1V19h-1   c-3.131,0-5-1.495-5-4C12,13.101,13.333,11.514,15.111,11.107z M14,25h2v10h-2V25z M6,38c0-0.551,0.448-1,1-1h9v2H8v18H6V38z    M61,61H3v-2h47v-2H10V41h2v9c0,2.757,2.243,5,5,5h12c2.757,0,5-2.243,5-5v-9h6v8c0,3.309,2.691,6,6,6s6-2.691,6-6v-8h2v16h-2v2h9   V61z"/><path d="M4,22c1.654,0,3-1.346,3-3s-1.346-3-3-3s-3,1.346-3,3S2.346,22,4,22z M4,18c0.552,0,1,0.449,1,1s-0.448,1-1,1s-1-0.449-1-1   S3.448,18,4,18z"/><path d="M7,10c1.654,0,3-1.346,3-3S8.654,4,7,4S4,5.346,4,7S5.346,10,7,10z M7,6c0.552,0,1,0.449,1,1S7.552,8,7,8S6,7.551,6,7   S6.448,6,7,6z"/><path d="M39,10c1.654,0,3-1.346,3-3s-1.346-3-3-3s-3,1.346-3,3S37.346,10,39,10z M39,6c0.552,0,1,0.449,1,1s-0.448,1-1,1   s-1-0.449-1-1S38.448,6,39,6z"/></g><text x="0" y="79" fill="#000000" font-size="5px" font-weight="bold" font-family="'Helvetica Neue', Helvetica, Arial-Unicode, Arial, Sans-serif">Created by Eucalyp</text><text x="0" y="84" fill="#000000" font-size="5px" font-weight="bold" font-family="'Helvetica Neue', Helvetica, Arial-Unicode, Arial, Sans-serif">from the Noun Project</text></svg>